HIERARCHY
ROOT Hips
{
	OFFSET 0.0000 0.0000 0.0000
	CHANNELS 6 Xposition Yposition Zposition Zrotation Xrotation Yrotation
	JOINT Ab
	{
		OFFSET -0.0000 8.1305 -0.0000
		CHANNELS 3 Zrotation Xrotation Yrotation
		JOINT Chest
		{
			OFFSET -0.0000 26.2902 -0.0000
			CHANNELS 3 Zrotation Xrotation Yrotation
			JOINT Neck
			{
				OFFSET -0.0000 26.2902 0.0000
				CHANNELS 3 Zrotation Xrotation Yrotation
				JOINT Head
				{
					OFFSET -0.0000 10.8167 0.0000
					CHANNELS 3 Zrotation Xrotation Yrotation
					End Site
					{
						OFFSET -0.0000 16.7167 0.0000
					}
				}
			}
			JOINT LeftCollar
			{
				OFFSET -0.0000 26.2902 0.0000
				CHANNELS 3 Zrotation Xrotation Yrotation
				JOINT LeftShoulder
				{
					OFFSET 19.6667 -0.0000 0.0000
					CHANNELS 3 Zrotation Xrotation Yrotation
					JOINT LeftElbow
					{
						OFFSET 27.2190 0.0000 0.0000
						CHANNELS 3 Zrotation Xrotation Yrotation
						JOINT LeftWrist
						{
							OFFSET 30.7431 0.0000 0.0000
							CHANNELS 3 Zrotation Xrotation Yrotation
							End Site
							{
								OFFSET 0.0000 -14.7500 0.0000
							}
						}
					}
				}
			}
			JOINT RightCollar
			{
				OFFSET -0.0000 26.2902 0.0000
				CHANNELS 3 Zrotation Xrotation Yrotation
				JOINT RightShoulder
				{
					OFFSET -19.6667 0.0000 0.0000
					CHANNELS 3 Zrotation Xrotation Yrotation
					JOINT RightElbow
					{
						OFFSET -27.2190 0.0000 0.0000
						CHANNELS 3 Zrotation Xrotation Yrotation
						JOINT RightWrist
						{
							OFFSET -30.7431 0.0000 0.0000
							CHANNELS 3 Zrotation Xrotation Yrotation
							End Site
							{
								OFFSET -0.0000 -14.7500 0.0000
							}
						}
					}
				}
			}
		}
	}
	JOINT LeftHip
	{
		OFFSET 11.8000 0.0000 0.0000
		CHANNELS 3 Zrotation Xrotation Yrotation
		JOINT LeftKnee
		{
			OFFSET -0.0000 -39.7832 0.0000
			CHANNELS 3 Zrotation Xrotation Yrotation
			JOINT LeftAnkle
			{
				OFFSET -0.0000 -41.7317 0.0000
				CHANNELS 3 Zrotation Xrotation Yrotation
				End Site
				{
					OFFSET -0.0000 -4.9167 16.7167
				}
			}
		}
	}
	JOINT RightHip
	{
		OFFSET -11.8000 0.0000 0.0000
		CHANNELS 3 Zrotation Xrotation Yrotation
		JOINT RightKnee
		{
			OFFSET -0.0000 -39.7832 0.0000
			CHANNELS 3 Zrotation Xrotation Yrotation
			JOINT RightAnkle
			{
				OFFSET -0.0000 -41.7317 0.0000
				CHANNELS 3 Zrotation Xrotation Yrotation
				End Site
				{
					OFFSET -0.0000 -4.9167 16.7167
				}
			}
		}
	}
}
MOTION
Frames: 12
Frame Time: 0.010000
-18.9362 97.3163 176.1077 356.9619 358.2125 175.7396 357.4616 347.4152 359.6916 359.9083 7.9077 0.0207 2.4837 356.6433 2.4831 351.8734 4.0073 2.6936 338.7561 357.2367 14.5213 318.2407 55.5006 341.2606 5.5902 358.4726 329.1388 84.1634 357.3901 341.1768 27.4820 355.9451 343.5772 49.4677 45.1764 1.5872 341.8152 355.2415 29.1293 272.1541 353.9659 13.1205 356.0755 5.1496 357.0898 358.4277 5.0995 9.8368 354.5780 352.0455 13.1120 355.9397 8.1737 9.7451 5.8788 4.0365 12.3094 347.1836 346.9217 311.5586 
-18.9421 97.3183 176.1022 356.9516 358.2078 175.7372 357.4578 347.4024 359.7548 359.9396 7.9095 359.9614 2.3262 356.6765 2.5364 352.0181 3.9603 2.7459 338.7211 357.2565 14.6262 318.2503 55.4360 341.2403 5.4913 358.4918 329.1290 84.2459 357.4170 341.1385 27.4816 355.9744 343.6611 49.3965 45.1938 1.5781 341.8988 355.2559 29.1356 272.1059 353.9986 13.1414 356.0619 5.1316 357.0541 358.4162 5.1346 9.8607 354.6431 352.0052 13.0832 355.9210 8.1835 9.7957 5.8749 4.0112 12.3147 347.1357 346.9854 311.5477 
-18.9437 97.3193 176.1075 356.9587 358.1943 175.7489 357.4523 347.3926 359.6797 359.9227 7.9220 0.0168 2.5836 356.6550 2.4798 351.7722 3.9642 2.6885 338.7637 357.2387 14.5220 318.2367 55.5054 341.2359 5.5908 358.4554 329.1494 84.1934 357.3964 341.1747 27.4960 355.9496 343.5559 49.3768 45.1497 1.6561 341.8003 355.2404 29.1038 272.4519 354.1650 13.5062 356.0817 5.0810 357.0319 358.3830 5.2078 9.8551 354.7364 351.9577 13.0848 355.9271 8.1745 9.8151 5.8802 3.9971 12.2917 347.1221 346.9976 311.5439 
-18.9501 97.3221 176.1028 356.9535 358.1959 175.7506 357.4525 347.3863 359.7391 359.9541 7.9311 359.9558 2.3349 356.6048 2.5229 351.9675 4.0315 2.7383 338.7240 357.2573 14.6359 318.3043 55.4671 341.1606 5.5054 358.4833 329.1497 84.2351 357.4122 341.1948 27.4870 355.9814 343.6616 49.3565 45.1490 1.6063 341.8700 355.2285 29.1151 272.3660 354.1810 13.5065 356.0763 5.0533 357.0006 358.3670 5.2768 9.8332 354.6686 351.8871 13.1728 355.9139 8.1985 9.8584 5.8877 3.9571 12.2716 347.1318 346.9973 311.5116 
-18.9531 97.3223 176.1070 356.9575 358.1802 175.7628 357.4617 347.3882 359.6927 359.9146 7.9155 359.9803 2.4810 356.6087 2.4777 351.8845 4.0100 2.6887 338.7480 357.2635 14.5440 318.2941 55.4673 341.1976 5.5628 358.4890 329.1429 84.0681 357.4174 341.1315 27.5049 355.9469 343.6041 49.3849 45.1069 1.6091 341.7993 355.2492 29.0917 272.4587 354.1311 13.5355 356.0898 4.9914 356.9827 358.3493 5.3617 9.7680 354.8424 351.8166 13.1805 355.9188 8.1893 9.8760 5.8845 3.9421 12.2364 347.1835 346.9731 311.5253 
-18.9588 97.3201 176.1080 356.9583 358.1608 175.7569 357.4586 347.3642 359.6867 359.9340 7.9398 359.9961 2.5196 356.5981 2.4795 351.8150 3.9874 2.6897 338.7436 357.2270 14.5779 318.3156 55.4852 341.1538 5.5906 358.4493 329.1596 84.1467 357.4075 341.2248 27.4975 355.9848 343.6308 49.3518 45.0773 1.6222 341.8821 355.2631 29.1049 272.3707 354.1839 13.5682 356.0929 4.9269 356.9982 358.3294 5.4524 9.7196 354.7694 351.7554 13.2621 355.9149 8.1838 9.9245 5.8892 3.9035 12.1638 347.2065 346.9566 311.5316 
-18.9684 97.3176 176.1125 356.9649 358.1478 175.7623 357.2740 347.6133 359.8233 0.2524 7.4659 0.0761 2.1376 356.7712 2.5298 352.4793 3.9454 2.7283 338.5707 357.2230 14.5192 318.1002 55.5847 341.5523 5.4734 358.4794 329.1569 84.0651 357.3995 341.0560 27.3801 355.9732 343.5090 49.4300 45.1528 1.4373 341.8180 355.2667 29.0912 272.0885 353.9947 13.0757 356.1028 4.8699 356.9599 358.3043 5.5569 9.6883 354.7977 351.6791 13.2540 355.9146 8.1758 9.8882 5.8899 3.8936 12.2006 347.1839 347.0038 311.5379 
-18.9708 97.3167 176.1110 356.9765 358.1393 175.7633 357.2790 347.6032 359.8090 0.2194 7.5023 0.0856 2.2482 356.6449 2.4189 352.3973 4.0514 2.6202 338.6059 357.2525 14.4011 318.2307 55.6428 341.4192 5.5133 358.4881 329.1725 83.9420 357.3859 341.0526 27.3915 355.9286 343.3669 49.4622 45.1088 1.4733 341.8372 355.2454 29.0779 272.1208 354.0151 13.1550 356.1222 4.8240 356.9559 358.2811 5.6384 9.6499 354.8228 351.6253 13.2782 355.9267 8.1840 9.9669 5.8888 3.8540 12.1107 347.2060 346.9849 311.5397 
-18.9800 97.3153 176.0991 356.9784 358.1502 175.7532 357.2902 347.6032 359.8180 0.2166 7.5261 0.0869 2.2287 356.6315 2.4171 352.4087 4.0504 2.6202 338.6002 357.2799 14.4107 318.2296 55.5877 341.4161 5.4742 358.4654 329.1469 84.0430 357.4041 340.9963 27.3668 355.9002 343.3888 49.4969 45.1583 1.4279 341.8311 355.2646 29.0726 272.1159 354.0017 13.1264 356.1190 4.8170 356.9265 358.2536 5.6899 9.6899 354.8642 351.6077 13.3079 355.9149 8.2183 10.0032 5.8924 3.8137 12.0847 347.2158 347.0010 311.5538 
-18.9877 97.3126 176.0972 356.9815 358.1427 175.7301 357.2950 347.6098 359.8331 0.2243 7.5253 0.1008 2.2851 356.5940 2.4131 352.3322 4.0914 2.6184 338.5988 357.2507 14.4314 318.3035 55.6395 341.3264 5.5666 358.4502 329.1725 83.8714 357.3889 341.0486 27.3658 355.9363 343.3906 49.4862 45.1249 1.4173 341.9253 355.2776 29.1025 272.0134 354.0200 13.1633 356.1160 4.7555 356.9428 358.2447 5.7952 9.6803 354.8769 351.5413 13.3143 355.9077 8.2045 10.0471 5.8996 3.8197 12.0544 347.2126 346.9979 311.5720 
-19.0000 97.3155 176.0831 356.9733 358.1487 175.7153 357.3115 347.6011 359.8307 0.1987 7.5471 0.1003 2.2664 356.6082 2.4083 352.3720 4.0626 2.6114 338.6035 357.2808 14.4212 318.2854 55.5820 341.3621 5.4826 358.5003 329.1484 83.8206 357.3968 340.9327 27.3641 355.9010 343.3974 49.4927 45.1848 1.4175 341.8348 355.2829 29.0809 272.1102 353.9983 13.1022 356.0941 4.7538 356.9384 358.2419 5.8178 9.6573 354.9277 351.5138 13.3906 355.8790 8.2137 10.1140 5.9250 3.8144 12.0503 347.1910 346.9819 311.5029 
-19.0072 97.3132 176.0650 356.9850 358.1594 175.6895 357.3148 347.5880 359.8445 0.2315 7.5925 0.1083 2.3102 356.5847 2.4175 352.2838 4.0803 2.6236 338.5928 357.2780 14.4265 318.2737 55.5681 341.3577 5.5203 358.4778 329.1470 83.8234 357.3632 340.9086 27.3364 355.9092 343.4116 49.4952 45.2093 1.4090 341.8708 355.2709 29.0921 272.0922 354.0414 13.1235 356.1040 4.7526 356.9105 358.2133 5.8764 9.6269 354.9190 351.4569 13.4588 355.8748 8.2467 10.2311 5.9354 3.7726 11.9344 347.1584 347.0237 311.5381 
